# xmcd
# 
# Track frame offsets:
#     150
#     15057
#     32625
#     50673
#     69600
#     85782
#     105120
#     121161
#     135759
#     157194
#     175332
#     194534
#     211164
# 
# Disc length: 3028
# 
# Revision: 1
# Processed by: cddbd v1.5.2PL0 Copyright (c) Steve Scherf et al.
# Submitted via: BonkEnc v1.0beta3
# 
DISCID=9d0bd20d
DTITLE=Lionel Richie - Coming home 
DYEAR=2006
DGENRE=R&B
TTITLE0=I call it love
TTITLE1=Sweet vacation
TTITLE2=Why
TTITLE3=What you are
TTITLE4=Up all night
TTITLE5=I'm coming home
TTITLE6=All around the world
TTITLE7=Out of my Head
TTITLE8=Reason to Believe
TTITLE9=Stand down
TTITLE10=Love You
TTITLE11=I apologgize
TTITLE12=I call it love remix
EXTD=
EXTT0=
EXTT1=
EXTT2=
EXTT3=
EXTT4=
EXTT5=
EXTT6=
EXTT7=
EXTT8=
EXTT9=
EXTT10=
EXTT11=
EXTT12=
PLAYORDER=
